<svg width="87" height="23" viewBox="0 0 87 23" fill="none" xmlns="http://www.w3.org/2000/svg">
<path d="M14.87 20.11C14.51 20.43 14.08 20.73 13.58 21.01C13.1 21.29 12.57 21.53 11.99 21.73C11.41 21.93 10.8 22.08 10.16 22.18C9.54 22.3 8.91 22.36 8.27 22.36C7.07 22.36 6.01 22.18 5.09 21.82C4.17 21.44 3.4 20.91 2.78 20.23C2.16 19.53 1.69 18.7 1.37 17.74C1.05 16.78 0.89 15.7 0.89 14.5C0.89 13.24 1.06 12.12 1.4 11.14C1.76 10.16 2.27 9.34 2.93 8.68C3.59 8.02 4.39 7.52 5.33 7.18C6.27 6.82 7.32 6.64 8.48 6.64C9.32 6.64 10.15 6.75 10.97 6.97C11.79 7.19 12.51 7.61 13.13 8.23C13.77 8.83 14.26 9.67 14.6 10.75C14.94 11.81 15.06 13.19 14.96 14.89H3.35C3.35 16.69 3.83 18.04 4.79 18.94C5.77 19.82 7.07 20.26 8.69 20.26C9.23 20.26 9.76 20.2 10.28 20.08C10.82 19.94 11.33 19.78 11.81 19.6C12.29 19.42 12.71 19.22 13.07 19C13.45 18.78 13.74 18.58 13.94 18.4L14.87 20.11ZM8.54 8.62C7.88 8.62 7.25 8.69 6.65 8.83C6.07 8.97 5.55 9.21 5.09 9.55C4.65 9.87 4.28 10.3 3.98 10.84C3.7 11.36 3.52 12.01 3.44 12.79H12.77C12.67 11.47 12.24 10.45 11.48 9.73C10.74 8.99 9.76 8.62 8.54 8.62ZM8.39 0.399999H11.66L8.09 4.87H6.44L8.39 0.399999ZM30.1583 9.31C29.6983 9.15 29.1983 9.02 28.6583 8.92C28.1383 8.8 27.6183 8.74 27.0983 8.74C25.1383 8.74 23.6783 9.2 22.7183 10.12C21.7583 11.04 21.2783 12.5 21.2783 14.5C21.2783 15.38 21.4183 16.17 21.6983 16.87C21.9783 17.55 22.3783 18.13 22.8983 18.61C23.4183 19.09 24.0383 19.46 24.7583 19.72C25.4983 19.98 26.3083 20.11 27.1883 20.11C28.1283 20.11 29.0383 19.95 29.9183 19.63C30.8183 19.31 31.5683 18.89 32.1683 18.37L33.2183 20.11C32.9383 20.35 32.5883 20.6 32.1683 20.86C31.7483 21.12 31.2583 21.37 30.6983 21.61C30.1583 21.83 29.5483 22.01 28.8683 22.15C28.2083 22.29 27.4883 22.36 26.7083 22.36C25.4083 22.36 24.2583 22.18 23.2583 21.82C22.2783 21.44 21.4583 20.91 20.7983 20.23C20.1383 19.53 19.6383 18.7 19.2983 17.74C18.9583 16.76 18.7883 15.68 18.7883 14.5C18.7883 13.24 18.9583 12.12 19.2983 11.14C19.6583 10.16 20.1683 9.34 20.8283 8.68C21.4883 8.02 22.2883 7.52 23.2283 7.18C24.1683 6.82 25.2183 6.64 26.3783 6.64C27.8583 6.64 29.0583 6.77 29.9783 7.03C30.9183 7.29 31.7083 7.58 32.3483 7.9L32.3183 7.99V12.16H30.1583V9.31ZM38.5466 0.999999H43.5266V16.96C43.5266 18.18 43.7266 19.04 44.1266 19.54C44.5466 20.04 45.1566 20.29 45.9566 20.29C46.5166 20.29 47.0466 20.19 47.5466 19.99C48.0666 19.79 48.6366 19.45 49.2566 18.97L50.3366 20.62C50.0166 20.9 49.6666 21.15 49.2866 21.37C48.9066 21.59 48.5166 21.78 48.1166 21.94C47.7166 22.08 47.3166 22.19 46.9166 22.27C46.5166 22.35 46.1466 22.39 45.8066 22.39C45.0666 22.39 44.4066 22.29 43.8266 22.09C43.2466 21.91 42.7566 21.61 42.3566 21.19C41.9766 20.77 41.6866 20.22 41.4866 19.54C41.2866 18.84 41.1866 17.98 41.1866 16.96V3.01H38.5466V0.999999ZM56.2048 8.17C57.0648 7.67 58.0348 7.31 59.1148 7.09C60.1948 6.87 61.2548 6.76 62.2948 6.76C63.3148 6.76 64.1448 6.92 64.7848 7.24C65.4448 7.56 65.9548 7.98 66.3148 8.5C66.6948 9 66.9448 9.58 67.0648 10.24C67.2048 10.88 67.2748 11.53 67.2748 12.19C67.2748 12.95 67.2548 13.76 67.2148 14.62C67.1748 15.48 67.1448 16.34 67.1248 17.2C67.1248 18.2 67.1848 19.15 67.3048 20.05H69.3148V22H65.3248L65.0548 19.75H64.9048C64.7848 19.93 64.6048 20.16 64.3648 20.44C64.1248 20.72 63.8048 21 63.4048 21.28C63.0248 21.54 62.5548 21.77 61.9948 21.97C61.4348 22.17 60.7748 22.27 60.0148 22.27C58.5348 22.27 57.3648 21.89 56.5048 21.13C55.6448 20.37 55.2148 19.33 55.2148 18.01C55.2148 16.99 55.4348 16.14 55.8748 15.46C56.3348 14.78 56.9848 14.26 57.8248 13.9C58.6648 13.54 59.6748 13.33 60.8548 13.27C62.0548 13.21 63.3948 13.29 64.8748 13.51C64.9748 12.59 64.9848 11.83 64.9048 11.23C64.8448 10.61 64.6848 10.12 64.4248 9.76C64.1848 9.4 63.8348 9.15 63.3748 9.01C62.9348 8.85 62.3848 8.77 61.7248 8.77C60.8248 8.77 59.9648 8.9 59.1448 9.16C58.3248 9.4 57.5948 9.65 56.9548 9.91L56.2048 8.17ZM60.6148 20.26C61.1748 20.26 61.6948 20.17 62.1748 19.99C62.6548 19.81 63.0748 19.58 63.4348 19.3C63.7948 19.02 64.0948 18.72 64.3348 18.4C64.5748 18.06 64.7548 17.74 64.8748 17.44V15.34C63.8348 15.16 62.8748 15.07 61.9948 15.07C61.1148 15.07 60.3548 15.17 59.7148 15.37C59.0748 15.55 58.5748 15.84 58.2148 16.24C57.8548 16.64 57.6748 17.16 57.6748 17.8C57.6748 18.46 57.8948 19.04 58.3348 19.54C58.7948 20.02 59.5548 20.26 60.6148 20.26ZM71.8831 7H75.4531V4.03L77.7931 3.37V7H85.8031V9.01H77.7931V16.09C77.7931 17.55 78.1431 18.63 78.8431 19.33C79.5631 20.03 80.5831 20.38 81.9031 20.38C82.8031 20.38 83.5831 20.21 84.2431 19.87C84.9231 19.53 85.5331 19.16 86.0731 18.76L86.8531 20.53C86.1531 21.09 85.3131 21.54 84.3331 21.88C83.3731 22.22 82.3831 22.39 81.3631 22.39C80.5631 22.39 79.8031 22.27 79.0831 22.03C78.3831 21.81 77.7631 21.46 77.2231 20.98C76.6831 20.5 76.2531 19.89 75.9331 19.15C75.6131 18.39 75.4531 17.49 75.4531 16.45V9.01H71.8831V7Z" fill="#3D4C69"/>
</svg>
