<svg width="13" height="22" viewBox="0 0 13 22" fill="none" xmlns="http://www.w3.org/2000/svg">
<path d="M6.776 21.324C4.76 21.324 3.158 20.685 1.97 19.407C0.8 18.111 0.215 16.302 0.215 13.98C0.215 12.576 0.476 11.325 0.998 10.227C1.538 9.111 2.285 8.238 3.239 7.608C4.193 6.96 5.3 6.636 6.56 6.636C7.91 6.636 9.026 6.933 9.908 7.527C10.808 8.103 11.483 8.886 11.933 9.876C12.383 10.866 12.608 11.955 12.608 13.143C12.608 13.773 12.581 14.385 12.527 14.979H2.699C2.861 16.293 3.32 17.319 4.076 18.057C4.832 18.795 5.831 19.164 7.073 19.164C7.883 19.164 8.612 19.083 9.26 18.921C9.908 18.741 10.529 18.516 11.123 18.246L11.69 20.325C11.042 20.613 10.313 20.847 9.503 21.027C8.693 21.225 7.784 21.324 6.776 21.324ZM2.672 13.008H10.367C10.367 11.64 10.025 10.587 9.341 9.849C8.657 9.111 7.712 8.742 6.506 8.742C5.462 8.742 4.598 9.111 3.914 9.849C3.23 10.569 2.816 11.622 2.672 13.008ZM4.319 5.475L3.482 3.828L8.585 0.452999L9.719 2.721L4.319 5.475Z" fill="white"/>
</svg>
